/* XPM */
static char *_0fcc60b2f09470efd8ebe7b39778f83j25U38eOLUMSsghi[] = {
/* columns rows colors chars-per-pixel */
"64 64 99 2 ",
"   c #2B6C0F",
".  c #2C6D0F",
"X  c #2B6C10",
"o  c #2C6D10",
"O  c #2F7012",
"+  c #327213",
"@  c #327214",
"#  c #337414",
"$  c #377717",
"%  c #377817",
"&  c #387817",
"*  c #397A18",
"=  c #3B7C1A",
"-  c #3C7C1A",
";  c #3E7F1C",
":  c #3F801D",
">  c #41811E",
",  c #43841F",
"<  c #44851F",
"1  c #478721",
"2  c #498722",
"3  c #478821",
"4  c #4A8A23",
"5  c #4A8B24",
"6  c #4E8E26",
"7  c #509027",
"8  c #539329",
"9  c #53942A",
"0  c #55942B",
"q  c #58972C",
"w  c #5A9A2E",
"e  c #5B9C2F",
"r  c #5E9E31",
"t  c #619F33",
"y  c #5FA031",
"u  c #62A032",
"i  c #62A034",
"p  c #64A234",
"a  c #65A435",
"s  c #69A637",
"d  c #68A837",
"f  c #68A638",
"g  c #6BAB39",
"h  c #6CAB3A",
"j  c #6EAD3B",
"k  c #70AE3D",
"l  c #73B13E",
"z  c #75B23F",
"x  c #75B43F",
"c  c #75B240",
"v  c #77B540",
"b  c #78B641",
"n  c #7AB943",
"m  c #7CBA44",
"M  c #7DBC45",
"N  c #80B646",
"B  c #81BD47",
"V  c #81BE48",
"C  c #87BF4B",
"Z  c #87BF4C",
"A  c #88BF4C",
"S  c #85C24A",
"D  c #87C34C",
"F  c #89C64D",
"G  c #8FC851",
"H  c #8FCE51",
"J  c #90CE52",
"K  c #93D353",
"L  c #96D155",
"P  c #98D757",
"I  c #9BD759",
"U  c #9AD958",
"Y  c #9EDB5B",
"T  c #9EDC5A",
"R  c #A1DF5D",
"E  c #A2E15D",
"W  c #A5D960",
"Q  c #A7DC60",
"!  c #ABDD63",
"~  c #A7E561",
"^  c #AAE163",
"/  c #A9E762",
"(  c #AEE164",
")  c #AEE466",
"_  c #AAE862",
"`  c #ADEB65",
"'  c #AEEC65",
"]  c #B1EF67",
"[  c #B3E168",
"{  c #B6E06B",
"}  c #B6E46B",
"|  c #B6EB6B",
" . c #B7EC6B",
".. c #B3F169",
"X. c #B6F26A",
"o. c #BFE870",
"O. c #BFED71",
"+. c #BDFA70",
"@. c #C0F371",
/* pixels */
"o o o o o o o o o o o o o o o o o o o o o o o o o o o o o o o o o o o o o o o o o o o o o o o o o o o o o o o o o o o o o o o o ",
"o o o o o o o o o o o o o o o o o o o o o o o o o o o o o o o o o o o o o o o o o o o o o o o o o o o o o o o o o o o o o o o o ",
"o o o o o o o o o o o o o o o o o o o o o o o o o o o o o o o o o o o o o o o o o o o o o o o o o o o o o o o o o o o o o o o o ",
"o o o o o o o o o o o o o o o o o o o o o o o o o o o o o o o o o o o o o o o o o o o o o o o o o o o o o o o o o o o o o o o o ",
"o o o o o o o o o o o o o o o o o o o o o o o o o o o o o o o o o o o o o o o o o o o o o o o o o o o o o o o o o o o o o o o o ",
"o o o o o o o o o o o o o o o o o o o o o o o o o o o o o o o o o o o o o o o o o o o o o o o o o o o o o o o o o o o o o o o o ",
"o o o o o o o o o o o o o o o o o o o o o o o o o o o o o o o o o o o o o o o o o o o o o o o o o o o o o o o o o o o o o o o o ",
"o o o o o o o o o o o o o o o o o o o o o o o o o o o o o o o o o o o o o o o o o o o o o o o o o o o o o o o o o o o o o o o o ",
"o o o o o o o o o o o o o o o o o o o o o o o o o o o o o o o o o o o o o o o o o o o o o o o o o o o o o o o o o o o o o o o o ",
"o o o o o o o o o o o o o o o o o o o o o o o o o o o o o o o o o o o o o o o o o o o o o o o o o o o o o o o o o o o o o o o o ",
"o o o o o o o o o o o o o o o o o o o o o o o o o o o o o o o o o o o o o o o o o o o o o o o o o o o o o o o o o o o o o o o o ",
"o o o o o o o o o o o o o o o o o o o o o o o o o o o o o o o o o o o o o o o o o o o o o o o o o o o o o o o o o o o o o o o o ",
"o o o o o o o o o o o o o o o o o o o o o o o o o o o o o o o o o o o o o o o o o o o o o o o o o o o o o o o o o o o o o o o o ",
"o o o o o o o o o o o o o o o o o o o o o o o o o o o o o o o o o o o o o o o o o o o o o o o o o o o o o o o o o o o o o o o o ",
"o o o o o o o o o o o o o o o o o o o o o o o o o o o o o o o o o o o o o o o o o o o o o o o o o o o o o o o o o o o o o o o o ",
"o o o o o o o o o o o o o o o o o o o o o o o o o o o o o o o o o o o o o o o o o o o o o o o o o o o o o o o o o o o o o o o o ",
"o o o o o o o o o o o o o o o o o o o o o o o o o o o o o o o o o o o o o o o o o o o o o o o o o o o o o o o o o o o o o o o o ",
"o o o o o o o o o o o o o o o o o o o o o o o o o o o o o o o o o o o o o o o o o o o o o o o o o o o o o o o o o o o o o o o o ",
"o o o o o o o o o o o o o o o o o o o o o o o o o o o o o o o o o o o o o o o o o o o o o o o o o o o o o o o o o o o o o o o o ",
"o o o o o o o o o o o o o o o o o o o o o o o o o o o o o o o o o o o o o o o o o o o o o o o o o o o o o o o o o o o o o o o o ",
"o o o o o o o o o o o o o o o o o o o o o o o o o o o o o o o o o o o o o o o o o o o o o o o o o o o o o o o o o o o o o o o o ",
"o o o o o o o o o o o o o o o o o o o o o o o o o o o o o o o o o o o o o o o o o o o o o o o o o o o o o o o o o o o o o o o o ",
"o o o o o o o o o o o o o o o o o o o o o o o o o o o o o o o o o o o o o o o o o o o o o o o o o o o o o o o o o o o o o o o o ",
"o o o o o o o o o o o o o o o o o o o o o o o o o o o o o o o o o o o o o o o o o o o o o o o o o o o o o o o o o o o o o o o o ",
"o o o o o o o o o o o o o o o o o o o o o o o o o o o o o o o o o o o o o o o o o o o o o o o o o o o o o o X o o o o o o o o o ",
"o o o o o o o o o o o o o o o o o o o o o o o o o o o o o o o o o o o o o o o o o o o o o o o o o o o o o . . o o o o o o o o o ",
"o o o o o o o o o o o o o o o o o o o o o o o o 1 k c c c c f $   X o o + w c z c z c 0 o o o o o - h c c g =   o o o o o o o o ",
"o o o o o o o o o o o o o o o o o o o o o o o o i } O.O.O.O.W > X o o X $ A o.O.O.O.o.N + o o o X 6 ) @.O.! 5 . o o o o o o o o ",
"o o o o o o o o o o o o o o o o o o o o o o 3 s l B B B B B m j u * + q h b B B B B B v g 0 + o X 6 ' X.F c - o o o o o o o o o ",
"o o o o o o o o o o o o o o o o o o o o o . f { Z * + + + + 2 Q ! 4 & G [ p + @ + + + h { C $ o o 6 ' / 1 + o o o o o o o o o o ",
"o o o o o o o o o o o o o o o o o o o o o . 0 D n p u u 0 @ - m m : $ j F k t u u 1 o 0 D s @ o o 6 ' ~ > X o o o o o o o o o o ",
"o o o o o o o o o o o o o o o o o o o o o o + $ a )  . .L - o $ $ o o # - S | | } k o + $ @ o o X 6 ' ~ >   o o o o o o o o o o ",
"o o o o o o o o o o o o o o o o o o o o o o ; 0 j J L L m & @ 8 8 $ O 4 w M L L L u . - 0 1 o o   6 ' ~ >   o o o o o o o o o o ",
"o o o o o o o o o o o o o o o o o o o o o o a ( S > * * % o > Y R 2 % F ^ a * * * #   p ( V $ o   6 ' ~ >   . o o o o o o o o o ",
"o o o o o o o o o o o o o o o o o o o o o X r I B 8 6 6 6 6 e K H , $ m I g 6 6 6 6 6 k Y x # $ 5 g ..' y 4 # X o o o o o o o o ",
"o o o o o o o o o o o o o o o o o o o o o o $ ; d ~ ' ' ` ' U 7 - + o * 1 S ` ` ` ` ` M > * o 9 E ..+.+.] Y 3 X o o o o o o o o ",
"o o o o o o o o o o o o o o o o o o o o o o o o w R / / / _ K -   X o o # n / / / / / l + o o 8 T / / / / P 1 X o o o o o o o o ",
"o o o o o o o o o o o o o o o o o o o o o o X X $ > 1 1 1 1 > O X o o o o * < 1 1 1 < * o o o # > 1 1 1 1 > + X o o o o o o o o ",
"o o o o o o o o o o o o o o o o o o o o o o o o             X o o o o o o .             o o o               o o o o o o o o o o ",
"o o o o o o o o o o o o o o o o o o o o o o o o o o o o o o o o o o o o o o o o o o o o o o o o o o o o o o o o o o o o o o o o ",
"o o o o o o o o o o o o o o o o o o o o o o o o o o o o o o o o o o o o o o o o o o o o o o o o o o o o o o o o o o o o o o o o ",
"o o o o o o o o o o o o o o o o o o o o o o o o o o o o o o o o o o o o o o o o o o o o o o o o o o o o o o o o o o o o o o o o ",
"o o o o o o o o o o o o o o o o o o o o o o o o o o o o o o o o o o o o o o o o o o o o o o o o o o o o o o o o o o o o o o o o ",
"o o o o o o o o o o o o o o o o o o o o o o o o o o o o o o o o o o o o o o o o o o o o o o o o o o o o o o o o o o o o o o o o ",
"o o o o o o o o o o o o o o o o o o o o o o o o o o o o o o o o o o o o o o o o o o o o o o o o o o o o o o o o o o o o o o o o ",
"o o o o o o o o o o o o o o o o o o o o o o o o o o o o o o o o o o o o o o o o o o o o o o o o o o o o o o o o o o o o o o o o ",
"o o o o o o o o o o o o o o o o o o o o o o o o o o o o o o o o o o o o o o o o o o o o o o o o o o o o o o o o o o o o o o o o ",
"o o o o o o o o o o o o o o o o o o o o o o o o o o o o o o o o o o o o o o o o o o o o o o o o o o o o o o o o o o o o o o o o ",
"o o o o o o o o o o o o o o o o o o o o o o o o o o o o o o o o o o o o o o o o o o o o o o o o o o o o o o o o o o o o o o o o ",
"o o o o o o o o o o o o o o o o o o o o o o o o o o o o o o o o o o o o o o o o o o o o o o o o o o o o o o o o o o o o o o o o ",
"o o o o o o o o o o o o o o o o o o o o o o o o o o o o o o o o o o o o o o o o o o o o o o o o o o o o o o o o o o o o o o o o ",
"o o o o o o o o o o o o o o o o o o o o o o o o o o o o o o o o o o o o o o o o o o o o o o o o o o o o o o o o o o o o o o o o ",
"o o o o o o o o o o o o o o o o o o o o o o o o o o o o o o o o o o o o o o o o o o o o o o o o o o o o o o o o o o o o o o o o ",
"o o o o o o o o o o o o o o o o o o o o o o o o o o o o o o o o o o o o o o o o o o o o o o o o o o o o o o o o o o o o o o o o ",
"o o o o o o o o o o o o o o o o o o o o o o o o o o o o o o o o o o o o o o o o o o o o o o o o o o o o o o o o o o o o o o o o ",
"o o o o o o o o o o o o o o o o o o o o o o o o o o o o o o o o o o o o o o o o o o o o o o o o o o o o o o o o o o o o o o o o ",
"o o o o o o o o o o o o o o o o o o o o o o o o o o o o o o o o o o o o o o o o o o o o o o o o o o o o o o o o o o o o o o o o ",
"o o o o o o o o o o o o o o o o o o o o o o o o o o o o o o o o o o o o o o o o o o o o o o o o o o o o o o o o o o o o o o o o ",
"o o o o o o o o o o o o o o o o o o o o o o o o o o o o o o o o o o o o o o o o o o o o o o o o o o o o o o o o o o o o o o o o ",
"o o o o o o o o o o o o o o o o o o o o o o o o o o o o o o o o o o o o o o o o o o o o o o o o o o o o o o o o o o o o o o o o ",
"o o o o o o o o o o o o o o o o o o o o o o o o o o o o o o o o o o o o o o o o o o o o o o o o o o o o o o o o o o o o o o o o ",
"o o o o o o o o o o o o o o o o o o o o o o o o o o o o o o o o o o o o o o o o o o o o o o o o o o o o o o o o o o o o o o o o ",
"o o o o o o o o o o o o o o o o o o o o o o o o o o o o o o o o o o o o o o o o o o o o o o o o o o o o o o o o o o o o o o o o ",
"o o o o o o o o o o o o o o o o o o o o o o o o o o o o o o o o o o o o o o o o o o o o o o o o o o o o o o o o o o o o o o o o "
};
