/* XPM */
static char *_f12335cd90a4e51bef8bad7f167e1beIxToo0FW6F7weiIk[] = {
/* columns rows colors chars-per-pixel */
"64 64 77 1 ",
"  c #2B6D0F",
". c #2C6D0F",
"X c #2B6D10",
"o c #2C6D10",
"O c #307112",
"+ c #327214",
"@ c #337414",
"# c #367617",
"$ c #377917",
"% c #3A7A18",
"& c #3B7C1A",
"* c #3F7F1B",
"= c #43831F",
"- c #44851F",
"; c #448420",
": c #478821",
"> c #4A8A23",
", c #4A8B24",
"< c #4E8E26",
"1 c #529229",
"2 c #53942A",
"3 c #56942B",
"4 c #57972C",
"5 c #5A9A2E",
"6 c #619F33",
"7 c #5FA031",
"8 c #60A032",
"9 c #65A334",
"0 c #66A536",
"q c #68A637",
"w c #6BAB39",
"e c #6CAB3A",
"r c #6DAC3B",
"t c #70AF3C",
"y c #72B23E",
"u c #75B23F",
"i c #75B43F",
"p c #75B340",
"a c #77B540",
"s c #78B641",
"d c #7AB943",
"f c #7CBB44",
"g c #7DBC45",
"h c #80B646",
"j c #81BE47",
"k c #81BE48",
"l c #87BF4B",
"z c #88BF4C",
"x c #84C34A",
"c c #87C34C",
"v c #89C64C",
"b c #8FC750",
"n c #94D154",
"m c #98D757",
"M c #9AD758",
"N c #9CD859",
"B c #9EDC5A",
"V c #A2E15D",
"C c #ABDD63",
"Z c #A7E661",
"A c #AAE163",
"S c #A9E762",
"D c #ADE064",
"F c #ADE564",
"G c #ADEB65",
"H c #ADEC65",
"J c #B1EF67",
"K c #B3E068",
"L c #B6E16A",
"P c #B6E76B",
"I c #B6EB6B",
"U c #B3F169",
"Y c #B6F26A",
"T c #BFE870",
"R c #BFEE71",
"E c #BDFA70",
"W c #C0F371",
/* pixels */
"oooooooooooooooooooooooooooooooooooooooooooooooooooooooooooooooo",
"oooooooooooooooooooooooooooooooooooooooooooooooooooooooooooooooo",
"oooooooooooooooooooooooooooooooooooooooooooooooooooooooooooooooo",
"oooooooooooooooooooooooooooooooooooooooooooooooooooooooooooooooo",
"oooooooooooooooooooooooooooooooooooooooooooooooooooooooooooooooo",
"oooooooooooooooooooooooooooooooooooooooooooooooooooooooooooooooo",
"oooooooooooooooooooooooooooooooooooooooooooooooooooooooooooooooo",
"oooooooooooooooooooooooooooooooooooooooooooooooooooooooooooooooo",
"oooooooooooooooooooooooooooooooooooooooooooooooooooooooooooooooo",
"oooooooooooooooooooooooooooooooooooooooooooooooooooooooooooooooo",
"oooooooooooooooooooooooooooooooooooooooooooooooooooooooooooooooo",
"oooooooooooooooooooooooooooooooooooooooooooooooooooooooooooooooo",
"oooooooooooooooooooooooooooooooooooooooooooooooooooooooooooooooo",
"oooooooooooooooooooooooooooooooooooooooooooooooooooooooooooooooo",
"oooooooooooooooooooooooooooooooooooooooooooooooooooooooooooooooo",
"oooooooooooooooooooooooooooooooooooooooooooooooooooooooooooooooo",
"oooooooooooooooooooooooooooooooooooooooooooooooooooooooooooooooo",
"oooooooooooooooooooooooooooooooooooooooooooooooooooooooooooooooo",
"oooooooooooooooooooooooooooooooooooooooooooooooooooooooooooooooo",
"oooooooooooooooooooooooooooooooooooooooooooooooooooooooooooooooo",
"oooooooooooooooooooooooooooooooooooooooooooooooooooooooooooooooo",
"oooooooooooooooooooooooooooooooooooooooooooooooooooooooooooooooo",
"oooooooooooooooooooooooooooooooooooooooooooooooooooooooooooooooo",
"oooooooooooooooooooooooooooooooooooooooooooooooooooooooooooooooo",
"ooooooooooooooooooooooooooooooooooooooooooooooooooooooXooooooooo",
"ooooooooooooooooooooooooooooooooooooooooooooooooooooo..ooooooooo",
"ooooooooooooooooooooooooooooooooooooO5pupup3ooooo*eppw& oooooooo",
"oooooooooooooooooooooooooooooooooooX#zTRRRThOoooX<FWRC,.oooooooo",
"ooooooooooooooooooooooooooooooooooO4esjjjjjaw3OoX<HYvp*ooooooooo",
"oooooooooooooooooooooooooooooooooX%bK9O+OOOeLl#oo<HS;Ooooooooooo",
"oooooooooooooooooooooooooooooooooX#rvt688;o3cq+oo<HZ=Xoooooooooo",
"ooooooooooooooooooooooooooooooooooo@*xIIPtoO#+ooX<HZ= oooooooooo",
"ooooooooooooooooooooooooooooooooooO>5gnnn8.*3;oo <HZ= oooooooooo",
"oooooooooooooooooooooooooooooooooX$vA0%%%@ 9Dk#o <HZ= .ooooooooo",
"ooooooooooooooooooooooooooooooooo #fMw<<<<<tNi@#,wUH7>@Xoooooooo",
"ooooooooooooooooooooooooooooooooooo%;xGGGGGg=%o2VUEEJN:Xoooooooo",
"oooooooooooooooooooooooooooooooooooo@dSSSSSyOoo1BSSSSm;Xoooooooo",
"ooooooooooooooooooooooooooooooooooooo%-;;;-%ooo@=;;;;=OXoooooooo",
"ooooooooooooooooooooooooooooooooooooo.      ooo       oooooooooo",
"oooooooooooooooooooooooooooooooooooooooooooooooooooooooooooooooo",
"oooooooooooooooooooooooooooooooooooooooooooooooooooooooooooooooo",
"oooooooooooooooooooooooooooooooooooooooooooooooooooooooooooooooo",
"oooooooooooooooooooooooooooooooooooooooooooooooooooooooooooooooo",
"oooooooooooooooooooooooooooooooooooooooooooooooooooooooooooooooo",
"oooooooooooooooooooooooooooooooooooooooooooooooooooooooooooooooo",
"oooooooooooooooooooooooooooooooooooooooooooooooooooooooooooooooo",
"oooooooooooooooooooooooooooooooooooooooooooooooooooooooooooooooo",
"oooooooooooooooooooooooooooooooooooooooooooooooooooooooooooooooo",
"oooooooooooooooooooooooooooooooooooooooooooooooooooooooooooooooo",
"oooooooooooooooooooooooooooooooooooooooooooooooooooooooooooooooo",
"oooooooooooooooooooooooooooooooooooooooooooooooooooooooooooooooo",
"oooooooooooooooooooooooooooooooooooooooooooooooooooooooooooooooo",
"oooooooooooooooooooooooooooooooooooooooooooooooooooooooooooooooo",
"oooooooooooooooooooooooooooooooooooooooooooooooooooooooooooooooo",
"oooooooooooooooooooooooooooooooooooooooooooooooooooooooooooooooo",
"oooooooooooooooooooooooooooooooooooooooooooooooooooooooooooooooo",
"oooooooooooooooooooooooooooooooooooooooooooooooooooooooooooooooo",
"oooooooooooooooooooooooooooooooooooooooooooooooooooooooooooooooo",
"oooooooooooooooooooooooooooooooooooooooooooooooooooooooooooooooo",
"oooooooooooooooooooooooooooooooooooooooooooooooooooooooooooooooo",
"oooooooooooooooooooooooooooooooooooooooooooooooooooooooooooooooo",
"oooooooooooooooooooooooooooooooooooooooooooooooooooooooooooooooo",
"oooooooooooooooooooooooooooooooooooooooooooooooooooooooooooooooo",
"oooooooooooooooooooooooooooooooooooooooooooooooooooooooooooooooo"
};
