/* XPM */
static char *_44a8d7fae3540c7b94fb4f75f7e35c0BXoFim8ZIDSMN7oO[] = {
/* columns rows colors chars-per-pixel */
"64 64 72 1 ",
"  c #2B6D0F",
". c #2C6D10",
"X c #2F7112",
"o c #337314",
"O c #377817",
"+ c #387817",
"@ c #3B7C1A",
"# c #3F801D",
"$ c #42821E",
"% c #498722",
"& c #478822",
"* c #4D8D25",
"= c #508F27",
"- c #509027",
"; c #54932A",
": c #58972C",
"> c #5B9A2E",
", c #5E9D31",
"< c #619F33",
"1 c #5FA031",
"2 c #63A234",
"3 c #68A637",
"4 c #68A837",
"5 c #69A638",
"6 c #6CAA3A",
"7 c #70AE3D",
"8 c #74B23F",
"9 c #75B240",
"0 c #78B641",
"q c #7DBB45",
"w c #80B646",
"e c #81BE47",
"r c #88BF4C",
"t c #86C34B",
"y c #89C64D",
"u c #8FCB51",
"i c #91CF53",
"p c #94D254",
"a c #98D757",
"s c #9BD759",
"d c #9CD95A",
"f c #9EDC5A",
"g c #A3DE5E",
"h c #A2E15D",
"j c #A5D960",
"k c #A7DC60",
"l c #ABDD63",
"z c #A7E061",
"x c #A7E561",
"c c #AAE162",
"v c #ABE463",
"b c #AEE164",
"n c #AAE764",
"m c #AEE466",
"M c #AAE862",
"N c #ADEB65",
"B c #AEEC65",
"V c #B1EF67",
"C c #B3E168",
"Z c #B6E06A",
"A c #B6E46B",
"S c #BCE66F",
"D c #B6EB6B",
"F c #B7EC6B",
"G c #B3F169",
"H c #B6F26A",
"J c #B8F46C",
"K c #BFE870",
"L c #BFED71",
"P c #BFF371",
"I c #BDFA70",
"U c #C0F371",
/* pixels */
"................................................................",
"................................................................",
"................................................................",
"................................................................",
"................................................................",
"................................................................",
"................................................................",
"................................................................",
"................................................................",
"................................................................",
"................................................................",
"................................................................",
"................................................................",
"................................................................",
"................................................................",
"................................................................",
"................................................................",
"................................................................",
"................................................................",
"................................................................",
"................................................................",
"................................................................",
"................................................................",
"................................................................",
"................................................................",
".................... ................................  .........",
"........ +5999999988*...&799995O ...o>98989;.....@6995@ ........",
"........ &cPLLLLLLLS7...2ALLLLj$....OrKLLLKwo....*mULl* ........",
"........ &nJueeeeeeq;.&58eeeeeq62+o:60eeeee05;o..*BHy9@.........",
"........ &vm*ooooooo..5Zr+oooo%kl&+uC2ooooo6ZrO..*Bv&o..........",
"........ @qt5>+ ......;tq222;o@qq#O6y7<22&.;t3o..*Bx$...........",
"..........O&dz= ......oO2mFFp@.OO..o@tDDA7.oOo...*Bx$ ..........",
".......... +eu2;+  ...@;6ippq+o;;OX&>qppp2 @;&.. *Bx$ ..........",
"............O&iz:  ...2bt$++O.$dg%Oyc2@++o 2beO. *Bx$  .........",
".............+ea4*+...,se;****>pu$Oqs5*****7d8oO*5GB1&o.........",
"..............+&yz,...O@4xBBNBs-@o.+&tNNNBNq$+.;hGIIVd&.........",
".............. Oqg,.....>gvvvMp@ ...oqvvvvv8o..;fvvvva&.........",
"................@$O.....O$&&&&#X.....+$&&&$+...o$&&&&$o.........",
"................   .....      .......       ...       ..........",
"................................................................",
"................................................................",
"................................................................",
"................................................................",
"................................................................",
"................................................................",
"................................................................",
"................................................................",
"................................................................",
"................................................................",
"................................................................",
"................................................................",
"................................................................",
"................................................................",
"................................................................",
"................................................................",
"................................................................",
"................................................................",
"................................................................",
"................................................................",
"................................................................",
"................................................................",
"................................................................",
"................................................................",
"................................................................"
};
